name E:\3-PhD\Data\MocapData\ElaboratedData\012\pre\dynamicElaborations\RunL1\RunL1.mot
datacolumns 37
datarows 14
range 3.5675 3.574
endheader

time	    ground_force1_vx	    ground_force1_vy	    ground_force1_vz	    ground_force1_px	    ground_force1_py	    ground_force1_pz	    ground_force2_vx	    ground_force2_vy	    ground_force2_vz	    ground_force2_px	    ground_force2_py	    ground_force2_pz	    ground_force3_vx	    ground_force3_vy	    ground_force3_vz	    ground_force3_px	    ground_force3_py	    ground_force3_pz	    ground_force4_vx	    ground_force4_vy	    ground_force4_vz	    ground_force4_px	    ground_force4_py	    ground_force4_pz	    ground_torque1_x	    ground_torque1_y	    ground_torque1_z	    ground_torque2_x	    ground_torque2_y	    ground_torque2_z	    ground_torque3_x	    ground_torque3_y	    ground_torque3_z	    ground_torque4_x	    ground_torque4_y	    ground_torque4_z	
3.5675	          0.00000000	          0.00000000	          0.00000000	          0.00000000	          0.00000000	          0.00000000	       -189.33639688	        420.67562683	         27.35329481	         -0.94801915	          0.00000000	          0.25590293	        -72.30945859	       1192.58832620	        132.70857896	         -0.82129143	          0.00000000	          0.23458983	          0.00000000	          0.00000000	          0.00000000	          0.00000000	          0.00000000	          0.00000000	          0.00000000	          0.00000000	          0.00000000	         -0.00000000	         -0.08354629	          0.00000000	          0.00000000	          7.26344020	         -0.00000000	          0.00000000	          0.00000000	          0.00000000	
3.568	          0.00000000	          0.00000000	          0.00000000	          0.00000000	          0.00000000	          0.00000000	       -187.19540960	        412.38431229	         27.21102939	         -0.94764409	          0.00000000	          0.25585326	        -72.28181575	       1204.45083466	        133.38256360	         -0.82114445	          0.00000000	          0.23466784	          0.00000000	          0.00000000	          0.00000000	          0.00000000	          0.00000000	          0.00000000	          0.00000000	          0.00000000	          0.00000000	         -0.00000000	         -0.08454407	          0.00000000	          0.00000000	          7.30193772	         -0.00000000	          0.00000000	          0.00000000	          0.00000000	
3.5685	          0.00000000	          0.00000000	          0.00000000	          0.00000000	          0.00000000	          0.00000000	       -185.04514748	        404.20971091	         27.05572762	         -0.94726828	          0.00000000	          0.25580319	        -72.20937329	       1216.21505478	        134.03726192	         -0.82099922	          0.00000000	          0.23474467	          0.00000000	          0.00000000	          0.00000000	          0.00000000	          0.00000000	          0.00000000	          0.00000000	          0.00000000	          0.00000000	         -0.00000000	         -0.08561353	          0.00000000	          0.00000000	          7.33933510	         -0.00000000	          0.00000000	          0.00000000	          0.00000000	
3.569	          0.00000000	          0.00000000	          0.00000000	          0.00000000	          0.00000000	          0.00000000	       -182.88591783	        396.15000014	         26.88776687	         -0.94689173	          0.00000000	          0.25575272	        -72.09170982	       1227.87779784	        134.67258838	         -0.82085569	          0.00000000	          0.23482034	          0.00000000	          0.00000000	          0.00000000	          0.00000000	          0.00000000	          0.00000000	          0.00000000	          0.00000000	          0.00000000	         -0.00000000	         -0.08675452	          0.00000000	          0.00000000	          7.37563076	         -0.00000000	          0.00000000	          0.00000000	          0.00000000	
3.5695	          0.00000000	          0.00000000	          0.00000000	          0.00000000	          0.00000000	          0.00000000	       -180.71804985	        388.20334904	         26.70751881	         -0.94651448	          0.00000000	          0.25570183	        -71.92848996	       1239.43598465	        135.28846235	         -0.82071381	          0.00000000	          0.23489489	          0.00000000	          0.00000000	          0.00000000	          0.00000000	          0.00000000	          0.00000000	          0.00000000	          0.00000000	          0.00000000	         -0.00000000	         -0.08796697	          0.00000000	          0.00000000	          7.41082323	         -0.00000000	          0.00000000	          0.00000000	          0.00000000	
3.57	          0.00000000	          0.00000000	          0.00000000	          0.00000000	          0.00000000	          0.00000000	       -178.54189321	        380.36792383	         26.51535272	         -0.94613653	          0.00000000	          0.25565053	        -71.71945860	       1250.88664286	        135.88480914	         -0.82057350	          0.00000000	          0.23496833	          0.00000000	          0.00000000	          0.00000000	          0.00000000	          0.00000000	          0.00000000	          0.00000000	          0.00000000	          0.00000000	         -0.00000000	         -0.08924943	          0.00000000	          0.00000000	          7.44491179	         -0.00000000	          0.00000000	          0.00000000	          0.00000000	
3.5705	          0.00000000	          0.00000000	          0.00000000	          0.00000000	          0.00000000	          0.00000000	       -176.35781614	        372.64189401	         26.31163852	         -0.94575789	          0.00000000	          0.25559881	        -71.46442622	       1262.22690472	        136.46156118	         -0.82043472	          0.00000000	          0.23504070	          0.00000000	          0.00000000	          0.00000000	          0.00000000	          0.00000000	          0.00000000	          0.00000000	          0.00000000	          0.00000000	         -0.00000000	         -0.09059896	          0.00000000	          0.00000000	          7.47789737	         -0.00000000	          0.00000000	          0.00000000	          0.00000000	
3.571	          0.00000000	          0.00000000	          0.00000000	          0.00000000	          0.00000000	          0.00000000	       -174.16620473	        365.02343625	         26.09674537	         -0.94537857	          0.00000000	          0.25554666	        -71.16325995	       1273.45400208	        137.01865479	         -0.82029740	          0.00000000	          0.23511202	          0.00000000	          0.00000000	          0.00000000	          0.00000000	          0.00000000	          0.00000000	          0.00000000	          0.00000000	          0.00000000	         -0.00000000	         -0.09201262	          0.00000000	          0.00000000	          7.50978211	         -0.00000000	          0.00000000	          0.00000000	          0.00000000	
3.5715	          0.00000000	          0.00000000	          0.00000000	          0.00000000	          0.00000000	          0.00000000	       -171.96746248	        357.51073550	         25.87103747	         -0.94499855	          0.00000000	          0.25549409	        -70.81588561	       1284.56526195	        137.55602431	         -0.82016148	          0.00000000	          0.23518233	          0.00000000	          0.00000000	          0.00000000	          0.00000000	          0.00000000	          0.00000000	          0.00000000	          0.00000000	          0.00000000	         -0.00000000	         -0.09348833	          0.00000000	          0.00000000	          7.54056846	         -0.00000000	          0.00000000	          0.00000000	          0.00000000	
3.572	          0.00000000	          0.00000000	          0.00000000	          0.00000000	          0.00000000	          0.00000000	       -169.76200739	        350.10198647	         25.63487242	         -0.94461783	          0.00000000	          0.25544109	        -70.42229002	       1295.55810735	        138.07359900	         -0.82002691	          0.00000000	          0.23525164	          0.00000000	          0.00000000	          0.00000000	          0.00000000	          0.00000000	          0.00000000	          0.00000000	          0.00000000	          0.00000000	         -0.00000000	         -0.09502407	          0.00000000	          0.00000000	          7.57025934	         -0.00000000	          0.00000000	          0.00000000	          0.00000000	
3.5725	          0.00000000	          0.00000000	          0.00000000	          0.00000000	          0.00000000	          0.00000000	       -167.55026682	        342.79539785	         25.38860398	         -0.94423639	          0.00000000	          0.25538766	        -69.98251334	       1306.43005899	        138.57130428	         -0.81989363	          0.00000000	          0.23531999	          0.00000000	          0.00000000	          0.00000000	          0.00000000	          0.00000000	          0.00000000	          0.00000000	          0.00000000	          0.00000000	         -0.00000000	         -0.09661673	          0.00000000	          0.00000000	          7.59885901	         -0.00000000	          0.00000000	          0.00000000	          0.00000000	
3.573	          0.00000000	          0.00000000	          0.00000000	          0.00000000	          0.00000000	          0.00000000	       -165.33267410	        335.58919747	         25.13258544	         -0.94385422	          0.00000000	          0.25533381	        -69.49663616	       1317.17873065	        139.04906359	         -0.81976157	          0.00000000	          0.23538741	          0.00000000	          0.00000000	          0.00000000	          0.00000000	          0.00000000	          0.00000000	          0.00000000	          0.00000000	          0.00000000	         -0.00000000	         -0.09826206	          0.00000000	          0.00000000	          7.62637319	         -0.00000000	          0.00000000	          0.00000000	          0.00000000	
3.5735	          0.00000000	          0.00000000	          0.00000000	          0.00000000	          0.00000000	          0.00000000	       -163.10966897	        328.48163459	         24.86716907	         -0.94347130	          0.00000000	          0.25527952	        -68.96477253	       1327.80182122	        139.50679686	         -0.81963068	          0.00000000	          0.23545393	          0.00000000	          0.00000000	          0.00000000	          0.00000000	          0.00000000	          0.00000000	          0.00000000	          0.00000000	          0.00000000	         -0.00000000	         -0.09995566	          0.00000000	          0.00000000	          7.65280833	         -0.00000000	          0.00000000	          0.00000000	          0.00000000	
3.574	          0.00000000	          0.00000000	          0.00000000	          0.00000000	          0.00000000	          0.00000000	       -160.88169842	        321.47097950	         24.59270281	         -0.94308759	          0.00000000	          0.25522480	        -68.38707104	       1338.29711028	        139.94441743	         -0.81950089	          0.00000000	          0.23551958	          0.00000000	          0.00000000	          0.00000000	          0.00000000	          0.00000000	          0.00000000	          0.00000000	          0.00000000	          0.00000000	         -0.00000000	         -0.10169372	          0.00000000	          0.00000000	          7.67817125	         -0.00000000	          0.00000000	          0.00000000	          0.00000000	
